<?xml version="1.0" encoding="UTF-8"?>
<svg width="17px" height="31px" viewBox="0 0 17 31" version="1.1" xmlns="http://www.w3.org/2000/svg" xmlns:xlink="http://www.w3.org/1999/xlink">
    <!-- Generator: Sketch 54.1 (76490) - https://sketchapp.com -->
    <title>Path 5</title>
    <desc>Created with Sketch.</desc>
    <g id="Page-1" stroke="none" stroke-width="1" fill="none" fill-rule="evenodd">
        <g id="Chat" transform="translate(-23.000000, -735.000000)" fill="#000000" fill-rule="nonzero">
            <path d="M25,759.142162 L25,743.144937 C25,739.751182 27.7511819,737 31.1449367,737 C34.5386915,737 37.2898734,739.751182 37.2898734,743.144937 L37.2898734,760.055731 C37.2898734,762.23409 35.5239638,764 33.345604,764 C31.1672441,764 29.4013345,762.23409 29.4013345,760.055731 L29.4013345,746.430199 C29.4013345,745.42653 30.2149689,744.612896 31.2186377,744.612896 C32.2223066,744.612896 33.0359409,745.42653 33.0359409,746.430199 L33.0359409,759.142162 L35.0359409,759.142162 L35.0359409,746.430199 C35.0359409,744.321961 33.3268761,742.612896 31.2186377,742.612896 C29.1103994,742.612896 27.4013345,744.321961 27.4013345,746.430199 L27.4013345,760.055731 C27.4013345,763.33866 30.0626746,766 33.345604,766 C36.6285333,766 39.2898734,763.33866 39.2898734,760.055731 L39.2898734,743.144937 C39.2898734,738.646612 35.643261,735 31.1449367,735 C26.6466124,735 23,738.646612 23,743.144937 L23,759.142162 L25,759.142162 Z" id="Path-5"></path>
        </g>
    </g>
</svg>