<?xml version="1.0" encoding="UTF-8"?>
<svg width="34px" height="31px" viewBox="0 0 34 31" version="1.1" xmlns="http://www.w3.org/2000/svg" xmlns:xlink="http://www.w3.org/1999/xlink">
    <!-- Generator: Sketch 53.2 (72643) - https://sketchapp.com -->
    <title>Rectangle Copy 3</title>
    <desc>Created with Sketch.</desc>
    <g id="Page-1" stroke="none" stroke-width="1" fill="none" fill-rule="evenodd">
        <g id="Campaigns-Blank" transform="translate(-218.000000, -734.000000)" fill="#000000" fill-rule="nonzero">
            <g id="Group-10" transform="translate(0.000000, 716.000000)">
                <g id="Group-6" transform="translate(210.500000, 19.000000)">
                    <path d="M36.4714782,21.6403036 C38.308891,20.8519503 39.5,19.0447821 39.5,17.0453854 L39.5,6 C39.5,3.23857625 37.2614237,1 34.5,1 L14.5,1 C11.7385763,1 9.5,3.23857625 9.5,6 L9.5,15 C9.5,17.7614237 11.7385763,20 14.5,20 L25.1851212,20 L25.1851212,26.4827852 L36.4714782,21.6403036 Z M14.5,22 C10.6340068,22 7.5,18.8659932 7.5,15 L7.5,6 C7.5,2.13400675 10.6340068,-1 14.5,-1 L34.5,-1 C38.3659932,-1 41.5,2.13400675 41.5,6 L41.5,17.0453854 C41.5,19.8445407 39.8324475,22.3745762 37.2600695,23.4782709 L23.1851212,29.5172148 L23.1851212,22 L14.5,22 Z" id="Rectangle-Copy-3"></path>
                </g>
            </g>
        </g>
    </g>
</svg>