<?xml version="1.0" encoding="UTF-8"?>
<svg width="30px" height="33px" viewBox="0 0 30 33" version="1.1" xmlns="http://www.w3.org/2000/svg" xmlns:xlink="http://www.w3.org/1999/xlink">
    <!-- Generator: Sketch 53.2 (72643) - https://sketchapp.com -->
    <title>Combined Shape</title>
    <desc>Created with Sketch.</desc>
    <g id="Page-1" stroke="none" stroke-width="1" fill="none" fill-rule="evenodd">
        <g id="Campaigns-Blank" transform="translate(-314.000000, -733.000000)" fill="#000000" fill-rule="nonzero">
            <g id="Group-10" transform="translate(0.000000, 716.000000)">
                <g id="Group-5" transform="translate(306.000000, 18.000000)">
                    <g id="Group-4" transform="translate(9.000000, 0.000000)">
                        <path d="M1,26.9293873 L1,26.9528712 C1,28.2783236 2.0744915,29.3528151 3.39994394,29.3528151 L24.6000561,29.3528151 C25.9255085,29.3528151 27,28.2783236 27,26.9528712 L27,26.9293873 C27,25.1823883 26.0881789,23.562074 24.5948594,22.6554307 L20.4810281,20.1577886 C16.4986024,17.7399271 11.5013976,17.7399271 7.51897188,20.1577886 L3.40514059,22.6554307 C1.91182106,23.562074 1,25.1823883 1,26.9293873 Z M6.48102812,18.448206 C11.1012437,15.6431213 16.8987563,15.6431213 21.5189719,18.448206 L25.6328032,20.9458481 C27.7234505,22.2151487 29,24.4835887 29,26.9293873 L29,26.9528712 C29,29.3828931 27.030078,31.3528151 24.6000561,31.3528151 L3.39994394,31.3528151 C0.969922003,31.3528151 -1,29.3828931 -1,26.9528712 L-1,26.9293873 C-1,24.4835887 0.276549483,22.2151487 2.36719682,20.9458481 L6.48102812,18.448206 Z M14,11 C16.7614237,11 19,8.76142375 19,6 C19,3.23857625 16.7614237,1 14,1 C11.2385763,1 9,3.23857625 9,6 C9,8.76142375 11.2385763,11 14,11 Z M14,13 C10.1340068,13 7,9.86599325 7,6 C7,2.13400675 10.1340068,-1 14,-1 C17.8659932,-1 21,2.13400675 21,6 C21,9.86599325 17.8659932,13 14,13 Z" id="Combined-Shape"></path>
                    </g>
                </g>
            </g>
        </g>
    </g>
</svg>