<?xml version="1.0" encoding="UTF-8"?>
<svg width="32px" height="33px" viewBox="0 0 32 33" version="1.1" xmlns="http://www.w3.org/2000/svg" xmlns:xlink="http://www.w3.org/1999/xlink">
    <!-- Generator: Sketch 53.2 (72643) - https://sketchapp.com -->
    <title>Group</title>
    <desc>Created with Sketch.</desc>
    <g id="Page-1" stroke="none" stroke-width="1" fill="none" fill-rule="evenodd">
        <g id="Campaigns-Blank" transform="translate(-127.000000, -733.000000)" fill="#000000" fill-rule="nonzero">
            <g id="Group-10" transform="translate(0.000000, 716.000000)">
                <g id="Group-7" transform="translate(120.500000, 17.000000)">
                    <g id="Group-3" transform="translate(6.500000, 0.000000)">
                        <g id="Group-2">
                            <g id="Group" transform="translate(0.000000, 0.280291)">
                                <path d="M3,16.0245922 L1,16.0245922 L1,10.928536 C1,7.06254277 4.13400675,3.92853602 8,3.92853602 L29.4160748,3.92853602 L29.4160748,5.92853602 L8,5.92853602 C5.23857625,5.92853602 3,8.16711227 3,10.928536 L3,16.0245922 Z" id="Path-3"></path>
                                <polygon id="Path-4" points="24.6045653 1.43941702 25.993118 -1.8189894e-12 31.1718495 4.99573201 25.9264455 9.22424485 24.6712377 7.66717922 28.1518373 4.86134002"></polygon>
                                <path d="M4.58392521,28.510881 L2.58392521,28.510881 L2.58392521,23.4148248 C2.58392521,19.5488315 5.71793196,16.4148248 9.58392521,16.4148248 L31,16.4148248 L31,18.4148248 L9.58392521,18.4148248 C6.82250146,18.4148248 4.58392521,20.653401 4.58392521,23.4148248 L4.58392521,28.510881 Z" id="Path-3" transform="translate(16.791963, 22.462853) scale(-1, -1) translate(-16.791963, -22.462853) "></path>
                                <polygon id="Path-4" transform="translate(4.111793, 27.827295) scale(-1, -1) translate(-4.111793, -27.827295) " points="0.828150504 24.6545892 2.21670322 23.2151722 7.39543471 28.2109042 2.15003077 32.439417 0.894822959 30.8823514 4.37542254 28.0765122"></polygon>
                            </g>
                        </g>
                    </g>
                </g>
            </g>
        </g>
    </g>
</svg>