<?xml version="1.0" encoding="UTF-8"?>
<svg width="18px" height="18px" viewBox="0 0 18 18" version="1.1" xmlns="http://www.w3.org/2000/svg" xmlns:xlink="http://www.w3.org/1999/xlink">
    <!-- Generator: Sketch 54.1 (76490) - https://sketchapp.com -->
    <title>Path 6</title>
    <desc>Created with Sketch.</desc>
    <g id="Page-1" stroke="none" stroke-width="1" fill="none" fill-rule="evenodd">
        <g id="Chat" transform="translate(-334.000000, -742.000000)" fill="#FF0091" fill-rule="nonzero">
            <path d="M334.292893,758.292893 C333.662928,758.922858 334.109095,760 335,760 L343,760 C343.265216,760 343.51957,759.894643 343.707107,759.707107 L351.707107,751.707107 C352.097631,751.316582 352.097631,750.683418 351.707107,750.292893 L343.707107,742.292893 C343.51957,742.105357 343.265216,742 343,742 L335,742 C334.109095,742 333.662928,743.077142 334.292893,743.707107 L341.585786,751 L334.292893,758.292893 Z M337.414214,758 L343.707107,751.707107 C344.097631,751.316582 344.097631,750.683418 343.707107,750.292893 L337.414214,744 L342.585786,744 L349.585786,751 L342.585786,758 L337.414214,758 Z" id="Path-6"></path>
        </g>
    </g>
</svg>